<svg width="250" height="158" viewBox="0 0 250 158" fill="none" xmlns="http://www.w3.org/2000/svg">
<path d="M91.2898 56.4339C91.2898 91.1524 74.5666 112.868 47.5431 112.868C20.5196 112.868 3.79639 91.1524 3.79639 56.4339C3.79639 21.5562 20.5196 0 47.5669 0C74.6142 0 91.2898 21.5562 91.2898 56.4339ZM66.9829 56.4339C66.9829 50.2509 65.6222 19.1814 47.5431 19.1814C29.2641 19.1814 27.9035 50.2509 27.9035 56.4339C27.9035 62.6169 29.2641 93.5272 47.5431 93.5272C65.6222 93.5272 66.9829 62.6169 66.9829 56.4339Z" fill="white"/>
<path d="M157.877 112.499H138.504L125.849 93.6829L113.327 112.499H93.9535L115.392 81.1155L94.9907 51.2404H114.497L125.858 68.5293L137.353 51.2404H156.859L136.439 81.0968L157.877 112.499Z" fill="white"/>
<path d="M227.34 81.0808C227.34 98.7538 215.331 112.736 197.366 112.736C191.23 112.799 185.307 110.521 180.838 106.38V157.797H163.663V50.4421H180.838V55.6508C185.096 51.8333 190.777 49.5615 197.366 49.5615C215.331 49.5615 227.34 63.4077 227.34 81.0808ZM210.164 81.0808C210.164 71.9281 204.874 64.9347 195.573 64.9347C186.271 64.9347 180.857 71.9281 180.857 81.0808C180.857 90.2335 186.281 97.2268 195.573 97.2268C204.864 97.2268 210.164 90.2335 210.164 81.0808Z" fill="white"/>
<path d="M231.507 112.788C235.028 112.788 237.882 109.978 237.882 106.512C237.882 103.045 235.028 100.235 231.507 100.235C227.986 100.235 225.132 103.045 225.132 106.512C225.132 109.978 227.986 112.788 231.507 112.788Z" fill="white"/>
<path d="M159.791 138.004H6.13263V122.804H159.791V117.661H0V143.147H159.791V138.004Z" fill="white"/>
<path d="M184.245 117.66V122.803H243.868V138.003H184.245V143.146H250V117.66H184.245Z" fill="white"/>
<path d="M14.7637 125.215H9.53979V136.021H14.7637V125.215Z" fill="white"/>
</svg>
