<svg xmlns="http://www.w3.org/2000/svg" width="512" height="512" viewBox="0 0 512 512" x="0" y="0">
    <defs transform="matrix(1.0554132008696775, 0, 0, 1.0554132008696775, -48.822212043452396, 132.41649209890758)"/>
    <path transform="matrix(5.12, 0, 0, 5.12, 0, -7.105427357601002e-15)" d="M50,50m-50,0a50,50 0 1, 0 100,0a50,50 0 1, 0 -100,0"/>
    <path d="M96.8,14.9L65.1,92c-1.4,3.4-4.6,5.6-8.3,5.6c-0.1,0-0.2,0-0.3,0c-3.8-0.1-7-2.5-8.2-6.1l-7.2-21c-0.6-1.8,0.4-3.8,2.2-4.4  c1.8-0.6,3.8,0.4,4.4,2.2l7.2,21c0.4,1.2,1.4,1.3,1.8,1.3c0.4,0,1.4-0.1,1.9-1.2l31.7-77.1c0.5-1.1-0.2-1.9-0.4-2.2  s-1.1-0.9-2.2-0.4L10.7,41.4c-1.1,0.5-1.2,1.5-1.2,1.9s0.2,1.4,1.3,1.8l24.5,8.4l31.8-27c1.5-1.3,3.7-1.1,4.9,0.4  c1.3,1.5,1.1,3.7-0.4,4.9L38.3,60c-0.9,0.8-2.2,1-3.4,0.6l-26.4-9c-3.6-1.2-6-4.4-6.1-8.2c-0.1-3.8,2.1-7.1,5.6-8.6L85.1,3.2  c3.4-1.4,7.2-0.7,9.8,2C97.5,7.7,98.2,11.5,96.8,14.9z" fill="#ffffff" transform="matrix(3.209659767671156, 0, 0, 3.209659767671156, 72.32971303467934, 104.87178715754686)"/>
</svg>
